<svg width="62" height="71" viewBox="0 0 62 71" fill="none" xmlns="http://www.w3.org/2000/svg">
<path d="M48.6334 15.6097C47.7134 16.1132 46.6775 16.3694 45.6278 16.3529C44.5782 16.3365 43.5509 16.048 42.6473 15.5158C41.7437 14.9837 40.995 14.2264 40.4749 13.3184C39.9549 12.4104 39.6815 11.3832 39.6816 10.338L39.6795 5.49802L31.0977 0.563965L31.0525 0.590548L31.0073 0.563965L22.4255 5.49802V10.338C22.426 11.3834 22.1528 12.4109 21.6329 13.3191C21.113 14.2273 20.3642 14.9848 19.4605 15.517C18.5567 16.0492 17.5293 16.3377 16.4794 16.3539C15.4295 16.3702 14.3935 16.1137 13.4736 15.6097L9.14882 13.1233L0.564941 18.0573V27.9275C0.564941 27.9275 2.73146 29.1738 4.88975 30.412C5.78718 30.9541 6.52731 31.7196 7.03726 32.6331C7.5472 33.5466 7.80938 34.5766 7.79797 35.6216C7.78656 36.6667 7.50196 37.6907 6.97219 38.593C6.44242 39.4952 5.68576 40.2445 4.7767 40.7671L0.564952 43.1861V53.0522L0.567007 53.0542V53.0665L9.14883 57.9986L13.3565 55.5797C14.2754 55.0516 15.3177 54.7735 16.3788 54.7735C17.4398 54.7734 18.4822 55.0513 19.4011 55.5793C20.3201 56.1073 21.0834 56.8667 21.6143 57.7814C22.1451 58.696 22.4249 59.7337 22.4255 60.79V65.6299L31.0073 70.564L31.0525 70.5374L31.0977 70.564L39.6795 65.6299L39.6816 60.79C39.6818 59.7337 39.9613 58.6961 40.4919 57.7814C41.0225 56.8668 41.7856 56.1073 42.7045 55.5792C43.6233 55.0512 44.6656 54.7733 45.7265 54.7733C46.7875 54.7734 47.8297 55.0515 48.7485 55.5796L52.9561 57.9985L61.538 53.0665V53.0542L61.54 53.0522V43.1861L57.3303 40.7671C56.4206 40.245 55.6633 39.4958 55.1331 38.5933C54.6029 37.6909 54.3182 36.6665 54.307 35.6211C54.2958 34.5757 54.5585 33.5454 55.0692 32.6319C55.5799 31.7185 56.321 30.9533 57.2194 30.412L61.5401 27.9275V18.0573L52.9562 13.1233L48.6334 15.6097ZM48.045 40.7065L43.8827 43.1002V43.1124H43.8807V47.8978C43.8809 48.9423 43.6048 49.9685 43.0803 50.8731C42.5558 51.7778 41.8014 52.529 40.8928 53.0514C39.9842 53.5737 38.9535 53.8487 37.9044 53.8487C36.8552 53.8487 35.8245 53.5737 34.916 53.0513L30.7537 50.6597L30.7089 50.684L30.6642 50.6597L26.5019 53.0513C25.5934 53.5737 24.5627 53.8487 23.5135 53.8488C22.4643 53.8488 21.4336 53.5738 20.525 53.0515C19.6164 52.5292 18.862 51.7779 18.3375 50.8732C17.813 49.9685 17.537 48.9423 17.5372 47.8978V43.1002L13.3749 40.7065C12.4779 40.1912 11.7309 39.4526 11.2072 38.563C10.6835 37.6735 10.4011 36.6637 10.3878 35.6327C10.3745 34.6018 10.6307 33.5851 11.1312 32.6824C11.6317 31.7798 12.3594 31.0222 13.2428 30.4842L17.5372 28.0136V23.2302C17.5371 22.1856 17.8131 21.1595 18.3376 20.2548C18.8622 19.3502 19.6166 18.599 20.5252 18.0767C21.4337 17.5544 22.4644 17.2794 23.5135 17.2794C24.5627 17.2793 25.5934 17.5543 26.5019 18.0766L30.6642 20.4682L30.7089 20.4439L30.7537 20.4682L34.916 18.0766C35.8245 17.5542 36.8552 17.2792 37.9044 17.2792C38.9536 17.2791 39.9843 17.5541 40.8929 18.0764C41.8015 18.5987 42.5559 19.35 43.0804 20.2547C43.6049 21.1594 43.8809 22.1856 43.8807 23.2302V28.0136L48.1751 30.4842C49.0589 31.0219 49.787 31.7792 50.2879 32.6818C50.7888 33.5843 51.0453 34.6011 51.0321 35.6322C51.019 36.6633 50.7367 37.6732 50.213 38.5629C49.6893 39.4525 48.9422 40.1912 48.045 40.7065Z" fill="white"/>
<path d="M82.7321 23.9388C83.1176 24.3051 83.5688 24.5959 84.0623 24.796C85.1724 25.2215 86.4016 25.2215 87.5116 24.796C88.1041 24.5563 88.6342 24.186 89.0622 23.7129C89.4902 23.2398 89.8048 22.6763 89.9825 22.0646C90.3708 20.6362 90.3708 19.1307 89.9825 17.7023C89.8048 17.0907 89.4902 16.5271 89.0622 16.054C88.6342 15.5809 88.1041 15.2106 87.5116 14.9709C86.4015 14.5455 85.1723 14.5455 84.0623 14.971C83.4698 15.2107 82.9397 15.581 82.5118 16.0541C82.0838 16.5272 81.7692 17.0907 81.5915 17.7023C81.2032 19.1307 81.2032 20.6362 81.5915 22.0646C81.7983 22.7789 82.192 23.4257 82.7321 23.9388ZM83.6539 18.3236C83.7504 17.8828 83.9649 17.4762 84.2747 17.1469C84.4595 16.9661 84.6762 16.8207 84.9139 16.7181C85.4753 16.5005 86.0984 16.5005 86.6599 16.718C86.8962 16.8199 87.1117 16.9641 87.2958 17.1434C87.6072 17.4734 87.823 17.8812 87.9201 18.3236C88.16 19.3498 88.16 20.4171 87.9201 21.4433C87.8236 21.8841 87.6091 22.2907 87.2994 22.62C87.1146 22.801 86.8978 22.9464 86.6599 23.049C86.0984 23.2665 85.4754 23.2665 84.9139 23.0489C84.6775 22.9472 84.462 22.803 84.2782 22.6235C83.9666 22.2936 83.7508 21.8857 83.6539 21.4433C83.414 20.4171 83.4139 19.3497 83.6539 18.3236Z" fill="#E8E8E8"/>
<path d="M94.5018 24.9853C94.7978 24.9921 95.0939 24.9724 95.3864 24.9263C95.4967 24.9151 95.6056 24.8928 95.7114 24.8595L95.8977 24.798V22.8833C95.6035 22.976 95.296 23.02 94.9874 23.0136C94.9025 23.0223 94.8166 23.0142 94.7349 22.9897C94.6531 22.9651 94.5771 22.9247 94.5111 22.8707C94.4064 22.7028 94.3605 22.5052 94.3804 22.3086V10.8667H92.2442V22.4019C92.204 23.0702 92.389 23.7327 92.77 24.2843C92.9832 24.5283 93.251 24.7188 93.5518 24.8406C93.8527 24.9624 94.1781 25.0119 94.5018 24.9853Z" fill="#E8E8E8"/>
<path d="M97.9994 24.1202C98.3127 24.433 98.6865 24.679 99.0983 24.8434C99.5865 25.0339 100.108 25.1265 100.632 25.116C101.308 25.1247 101.975 24.9703 102.578 24.6659C102.943 24.4818 103.271 24.2335 103.547 23.933C103.621 24.1389 103.733 24.3288 103.879 24.4924C104.032 24.6622 104.22 24.7962 104.432 24.8847C104.643 24.9732 104.871 25.014 105.099 25.0041C105.299 25.0055 105.498 24.9882 105.694 24.9526C105.894 24.9119 106.088 24.8444 106.27 24.7518L106.42 24.677V22.9878C106.42 22.9878 106.126 23.0625 106.038 23.0829C105.951 23.1032 105.72 23.1762 105.605 23.0898C105.562 23.0467 105.528 22.9945 105.507 22.9368C105.486 22.8791 105.478 22.8175 105.484 22.7564V18.1872C105.49 17.651 105.386 17.1191 105.177 16.6247C104.913 16.0364 104.474 15.5421 103.921 15.2078C103.208 14.8068 102.396 14.6144 101.578 14.6527C100.987 14.6494 100.399 14.7388 99.8359 14.9178C99.3173 15.0747 98.8458 15.3569 98.4632 15.7392C98.1931 16.0071 97.9743 16.3218 97.8176 16.6678C97.6507 17.0576 97.563 17.4763 97.5595 17.8999L97.5517 18.1783H99.6582V17.9075C99.6539 17.7316 99.6863 17.5568 99.7531 17.394C99.82 17.2311 99.92 17.0838 100.047 16.9613C100.208 16.8107 100.399 16.6951 100.608 16.6215C100.92 16.5176 101.249 16.47 101.578 16.4811C101.867 16.4719 102.156 16.5106 102.432 16.5957C102.621 16.6595 102.796 16.7604 102.946 16.8924C103.109 17.0374 103.222 17.2296 103.269 17.442C103.32 17.6684 103.346 17.8995 103.348 18.1313V18.566L100.728 18.7189C100.138 18.7378 99.5561 18.8664 99.0133 19.0981C98.5928 19.2835 98.2123 19.548 97.8926 19.877C97.614 20.1692 97.4049 20.52 97.281 20.9036C97.1717 21.237 97.114 21.5851 97.1099 21.9359C97.1108 22.3337 97.1868 22.7278 97.3341 23.0977C97.4846 23.4796 97.7109 23.8274 97.9994 24.1202ZM99.4325 21.2709C99.5308 21.1004 99.6679 20.9552 99.8328 20.8472C100.016 20.729 100.216 20.6401 100.427 20.5837C100.646 20.5225 100.871 20.485 101.098 20.4717L103.348 20.3395V20.6117C103.348 20.9756 103.29 21.3372 103.175 21.6827C103.062 22.0177 102.872 22.3216 102.62 22.5701C102.403 22.7986 102.135 22.9733 101.838 23.0803C101.53 23.1927 101.205 23.2502 100.877 23.2503C100.655 23.2744 100.431 23.2511 100.218 23.182C100.006 23.1129 99.8111 22.9996 99.6463 22.8497C99.4099 22.5891 99.2804 22.2497 99.2835 21.8986C99.2762 21.6799 99.3277 21.4632 99.4325 21.2709Z" fill="#E8E8E8"/>
<path d="M90.7325 39.2246C90.6886 39.1815 90.6549 39.1293 90.6339 39.0716C90.6128 39.0139 90.6049 38.9523 90.6108 38.8912V34.322C90.6173 33.7857 90.5129 33.2539 90.3041 32.7595C90.0395 32.1711 89.6013 31.6769 89.0478 31.3425C88.3349 30.9415 87.5227 30.7491 86.7048 30.7875C86.1138 30.7841 85.5259 30.8736 84.9629 31.0526C84.4443 31.2094 83.9727 31.4916 83.5902 31.8739C83.3201 32.1419 83.1013 32.4566 82.9445 32.8026C82.7777 33.1923 82.69 33.611 82.6865 34.0347L82.6786 34.313H84.7851V34.0423C84.7809 33.8664 84.8132 33.6916 84.8801 33.5287C84.947 33.3659 85.047 33.2186 85.1737 33.0961C85.3353 32.9455 85.5264 32.8298 85.735 32.7563C86.0473 32.6523 86.3757 32.6048 86.7048 32.6159C86.9939 32.6067 87.2825 32.6454 87.5588 32.7305C87.7484 32.7943 87.9232 32.8951 88.0731 33.0271C88.2359 33.1722 88.349 33.3644 88.3964 33.5768C88.4466 33.8032 88.4729 34.0342 88.4746 34.2661V34.7008L85.855 34.8537C85.2646 34.8726 84.6831 35.0012 84.1402 35.2328C83.7198 35.4182 83.3393 35.6827 83.0196 36.0118C82.7409 36.3039 82.5319 36.6548 82.408 37.0383C82.2987 37.3718 82.241 37.7199 82.2368 38.0707C82.2377 38.4685 82.3138 38.8626 82.461 39.2324C82.6115 39.6144 82.8378 39.9622 83.1264 40.2551C83.4397 40.5678 83.8135 40.8138 84.2253 40.9782C84.7134 41.1687 85.2346 41.2613 85.7588 41.2508C86.4346 41.2595 87.1025 41.1051 87.7052 40.8007C88.0699 40.6166 88.398 40.3683 88.6738 40.0678C88.7476 40.2737 88.8604 40.4636 89.0061 40.6272C89.1588 40.797 89.3475 40.931 89.5585 41.0195C89.7696 41.108 89.9977 41.1488 90.2264 41.1389C90.4259 41.1403 90.625 41.1231 90.8213 41.0874C91.0214 41.0468 91.2151 40.9792 91.397 40.8866L91.5474 40.8118V39.1226C91.5474 39.1226 91.2533 39.1974 91.1655 39.2177C91.0777 39.2381 90.8472 39.311 90.7325 39.2246ZM88.4746 36.7465C88.475 37.1104 88.4167 37.472 88.3017 37.8175C88.1892 38.1524 87.9992 38.4564 87.747 38.7049C87.5298 38.9334 87.2618 39.1081 86.9646 39.215C86.6569 39.3275 86.3318 39.385 86.004 39.3851C85.7821 39.4092 85.5575 39.3859 85.3453 39.3168C85.133 39.2477 84.938 39.1344 84.7732 38.9844C84.5368 38.7239 84.4073 38.3844 84.4104 38.0333C84.4032 37.8146 84.4547 37.598 84.5595 37.4057C84.6578 37.2351 84.7949 37.09 84.9598 36.9819C85.1428 36.8638 85.3432 36.7749 85.5538 36.7185C85.773 36.6573 85.9981 36.6197 86.2253 36.6065L88.4746 36.4742L88.4746 36.7465Z" fill="#E8E8E8"/>
<path d="M124.551 23.933C124.625 24.1389 124.738 24.3288 124.883 24.4924C125.036 24.6622 125.225 24.7962 125.436 24.8847C125.647 24.9732 125.875 25.014 126.104 25.0041C126.303 25.0055 126.502 24.9882 126.698 24.9526C126.899 24.9119 127.092 24.8444 127.274 24.7517L127.425 24.6769V22.9878C127.425 22.9878 127.13 23.0625 127.043 23.0829C126.955 23.1032 126.724 23.1762 126.61 23.0898C126.566 23.0467 126.532 22.9945 126.511 22.9368C126.49 22.8791 126.482 22.8175 126.488 22.7565V18.1872C126.495 17.651 126.39 17.1191 126.181 16.6247C125.917 16.0363 125.479 15.5421 124.925 15.2078C124.212 14.8068 123.4 14.6144 122.582 14.6527C121.991 14.6494 121.403 14.7388 120.84 14.9178C120.321 15.0747 119.85 15.3569 119.467 15.7392C119.197 16.0071 118.979 16.3218 118.822 16.6678C118.655 17.0576 118.567 17.4763 118.564 17.8999L118.556 18.1783H120.662V17.9075C120.658 17.7316 120.69 17.5568 120.757 17.394C120.824 17.2311 120.924 17.0838 121.051 16.9613C121.212 16.8107 121.404 16.6951 121.612 16.6215C121.924 16.5176 122.253 16.47 122.582 16.4811C122.871 16.4719 123.16 16.5106 123.436 16.5957C123.626 16.6595 123.8 16.7604 123.95 16.8924C124.113 17.0374 124.226 17.2297 124.274 17.442C124.324 17.6684 124.35 17.8995 124.352 18.1313V18.566L121.732 18.7189C121.142 18.7378 120.56 18.8664 120.017 19.0981C119.597 19.2835 119.216 19.548 118.897 19.877C118.618 20.1692 118.409 20.52 118.285 20.9036C118.176 21.237 118.118 21.5851 118.114 21.9359C118.115 22.3337 118.191 22.7278 118.338 23.0977C118.489 23.4796 118.715 23.8274 119.004 24.1203C119.317 24.433 119.691 24.679 120.102 24.8434C120.591 25.0339 121.112 25.1265 121.636 25.116C122.312 25.1248 122.98 24.9703 123.582 24.666C123.947 24.4818 124.275 24.2335 124.551 23.933ZM123.624 22.5701C123.407 22.7986 123.139 22.9733 122.842 23.0803C122.534 23.1927 122.209 23.2502 121.881 23.2503C121.659 23.2744 121.435 23.2511 121.222 23.182C121.01 23.1129 120.815 22.9996 120.65 22.8497C120.414 22.5891 120.285 22.2497 120.288 21.8986C120.28 21.6798 120.332 21.4632 120.437 21.2709C120.535 21.1003 120.672 20.9552 120.837 20.8471C121.02 20.729 121.22 20.6401 121.431 20.5837C121.65 20.5225 121.875 20.485 122.103 20.4717L124.352 20.3394V20.6117C124.352 20.9756 124.294 21.3372 124.179 21.6827C124.066 22.0177 123.876 22.3216 123.624 22.5701Z" fill="#E8E8E8"/>
<path d="M110.411 20.2192C110.411 19.8656 110.427 19.4641 110.457 19.0257C110.478 18.6481 110.567 18.2773 110.721 17.9317C110.897 17.5575 111.159 17.2297 111.485 16.9744C111.786 16.7432 112.157 16.6215 112.537 16.6295C112.791 16.6021 113.048 16.6325 113.288 16.7181C113.529 16.8038 113.747 16.9426 113.926 17.1242C114.23 17.56 114.378 18.0855 114.344 18.6153V24.8727H116.48V18.3915C116.537 17.4003 116.218 16.424 115.586 15.6555C115.242 15.3075 114.827 15.0376 114.369 14.8644C113.91 14.6912 113.419 14.6187 112.93 14.6519C112.629 14.6542 112.329 14.6947 112.037 14.7725C111.731 14.852 111.436 14.9659 111.155 15.1118C110.872 15.2599 110.611 15.4479 110.381 15.6701C110.34 15.7089 110.302 15.749 110.264 15.7902L110.181 14.8943H108.275V24.8727H110.411L110.411 20.2192Z" fill="#E8E8E8"/>
<path d="M76.7574 30.7886C76.4558 30.7909 76.1558 30.8315 75.8646 30.9093C75.5586 30.9888 75.2627 31.1026 74.9826 31.2486C74.6987 31.3967 74.4378 31.5847 74.2077 31.8068C74.1675 31.8457 74.1287 31.8857 74.0912 31.9269L74.0083 31.0311H72.1021V41.0094H74.2383V36.3559C74.2383 36.0022 74.2538 35.6007 74.2844 35.1623C74.3047 34.7847 74.3941 34.414 74.5481 34.0684C74.7241 33.6942 74.9858 33.3664 75.3121 33.1111C75.6129 32.8799 75.9841 32.7582 76.364 32.7662C76.618 32.7389 76.8749 32.7692 77.1155 32.8549C77.356 32.9406 77.5739 33.0794 77.7528 33.2609C78.0573 33.6967 78.2047 34.2222 78.1713 34.752V41.0094H80.3075V34.5282C80.364 33.537 80.045 32.5607 79.4136 31.7922C79.0697 31.4442 78.6542 31.1744 78.1957 31.0011C77.7373 30.8279 77.2466 30.7554 76.7574 30.7886Z" fill="#E8E8E8"/>
<path d="M99.1438 34.732V41.008H101.28V35.7204C101.278 35.261 101.329 34.8029 101.432 34.355C101.52 33.9594 101.722 33.5977 102.012 33.3134C102.17 33.1442 102.358 33.0062 102.567 32.9065C102.783 32.8089 103.019 32.7605 103.256 32.7648C103.538 32.7553 103.819 32.8043 104.081 32.9088C104.272 32.9885 104.438 33.1165 104.564 33.2799C104.692 33.4591 104.781 33.6628 104.826 33.8781C104.887 34.1586 104.916 34.445 104.913 34.732V41.008H107.05V34.5269C107.094 33.5607 106.797 32.6096 106.211 31.8382C105.888 31.476 105.485 31.1928 105.035 31.0105C104.584 30.8283 104.097 30.7519 103.612 30.7872C103.289 30.7874 102.967 30.8278 102.655 30.9075C102.339 30.9876 102.036 31.1097 101.754 31.2705C101.467 31.4335 101.208 31.6398 100.986 31.8821C100.883 31.9937 100.789 32.1134 100.706 32.2399C100.485 31.8529 100.173 31.5255 99.7959 31.2864C99.2495 30.9724 98.6324 30.8008 98.0017 30.7875C97.371 30.7743 96.7472 30.9198 96.188 31.2105C95.8822 31.3713 95.6101 31.5888 95.3863 31.8513L95.2946 31.0297H93.3931V41.008H95.5292V35.7204C95.5325 35.3126 95.5777 34.9062 95.664 34.5075C95.731 34.1428 95.8826 33.7986 96.1066 33.5024C96.28 33.2849 96.4925 33.1014 96.7333 32.9613C96.968 32.8274 97.2348 32.7596 97.5052 32.7648C97.7872 32.7553 98.0681 32.8043 98.3301 32.9088C98.5205 32.9892 98.6868 33.117 98.8132 33.28C98.9396 33.4568 99.0255 33.659 99.065 33.8724C99.12 34.1556 99.1464 34.4436 99.1438 34.732Z" fill="#E8E8E8"/>
<path d="M115.895 40.4955C116.317 40.2093 116.675 39.8397 116.946 39.4097C117.226 38.976 117.406 38.4864 117.473 37.9756L117.514 37.6694H115.437L115.385 37.8744C115.344 38.0578 115.278 38.2347 115.189 38.4004C115.107 38.5383 115.007 38.6649 114.892 38.7774C114.448 39.1326 113.893 39.3213 113.323 39.3105C112.754 39.2997 112.206 39.0902 111.776 38.7184C111.505 38.4402 111.296 38.1073 111.164 37.742C111.05 37.4434 110.978 37.1305 110.95 36.8122H117.639L117.663 35.5955C117.678 34.9426 117.571 34.2927 117.347 33.6789C117.136 33.0909 116.811 32.5497 116.391 32.0858C115.998 31.665 115.52 31.3317 114.989 31.1079C114.457 30.8842 113.884 30.775 113.307 30.7876C112.501 30.7704 111.706 30.978 111.011 31.3869C110.389 31.7571 109.868 32.2757 109.496 32.896C109.219 33.3571 109.019 33.8598 108.902 34.3846C108.783 34.9339 108.724 35.4945 108.727 36.0565C108.724 36.7328 108.826 37.4055 109.03 38.0505C109.225 38.6698 109.545 39.2431 109.97 39.7354C110.361 40.203 110.849 40.5805 111.4 40.8417C112.003 41.1212 112.662 41.2611 113.326 41.2509C113.791 41.2522 114.253 41.1854 114.698 41.0528C115.122 40.9267 115.526 40.7389 115.895 40.4955ZM111.141 34.2461C111.233 33.9555 111.382 33.6854 111.578 33.451C111.776 33.2155 112.021 33.0229 112.298 32.8849C112.613 32.7356 112.959 32.6627 113.307 32.6719C113.647 32.6633 113.983 32.7333 114.291 32.8764C114.554 33.0044 114.784 33.1908 114.963 33.4214C115.138 33.6601 115.27 33.928 115.351 34.2124C115.418 34.4395 115.461 34.6731 115.479 34.9092H110.997C111.023 34.684 111.071 34.462 111.141 34.2461Z" fill="#E8E8E8"/>
<path d="M88.6655 48.2225C88.2727 47.8017 87.7948 47.4684 87.2634 47.2446C86.7319 47.0209 86.1588 46.9117 85.5819 46.9243C84.7754 46.9071 83.9801 47.1147 83.2858 47.5237C82.6629 47.8939 82.1423 48.4124 81.7708 49.0328C81.4936 49.4939 81.293 49.9965 81.1766 50.5213C81.0574 51.0706 80.9987 51.6313 81.0016 52.1933C80.9984 52.8695 81.1007 53.5422 81.3048 54.1872C81.4998 54.8065 81.8194 55.3798 82.2442 55.8721C82.6349 56.3397 83.1231 56.7172 83.6749 56.9784C84.2776 57.2579 84.936 57.3978 85.6007 57.3876C86.0651 57.3889 86.5272 57.3222 86.972 57.1895C87.3966 57.0634 87.8002 56.8757 88.1698 56.6323C88.5913 56.346 88.949 55.9764 89.2207 55.5464C89.5 55.1127 89.6801 54.6231 89.7479 54.1123L89.7886 53.8061H87.7112L87.6597 54.0111C87.6186 54.1945 87.5527 54.3715 87.4638 54.5372C87.3813 54.675 87.2813 54.8017 87.1664 54.9141C86.7224 55.2693 86.1673 55.458 85.5978 55.4473C85.0284 55.4365 84.4809 55.2269 84.0508 54.8551C83.779 54.577 83.5703 54.244 83.4388 53.8788C83.3245 53.5802 83.2522 53.2673 83.2242 52.949H89.9135L89.9376 51.7322C89.9524 51.0794 89.8452 50.4294 89.6213 49.8156C89.4101 49.2276 89.0854 48.6864 88.6655 48.2225ZM83.2712 51.0459C83.2974 50.8208 83.3456 50.5987 83.4152 50.3829C83.5078 50.0922 83.6562 49.8221 83.8521 49.5877C84.051 49.3522 84.296 49.1596 84.5721 49.0216C84.8872 48.8724 85.2332 48.7994 85.5819 48.8087C85.9212 48.8 86.2579 48.87 86.5653 49.0131C86.8284 49.1411 87.0584 49.3276 87.2375 49.5581C87.4128 49.7969 87.5441 50.0647 87.6252 50.3492C87.6925 50.5763 87.7355 50.8098 87.7535 51.0459L83.2712 51.0459Z" fill="#E8E8E8"/>
<path d="M96.5992 47.1109C95.9685 47.1079 95.3473 47.2635 94.7931 47.5632C94.4746 47.7343 94.1931 47.9662 93.9648 48.2456L93.87 47.1668H91.9438V57.1452H94.0801V52.6782C94.0801 52.4373 94.0893 52.18 94.1075 51.9134C94.1258 51.6497 94.1618 51.3875 94.215 51.1286C94.2648 50.8829 94.3456 50.6444 94.4553 50.4188C94.5581 50.2075 94.6956 50.0147 94.8621 49.8484C95.0661 49.6499 95.3031 49.4882 95.5626 49.3706C95.8468 49.2419 96.156 49.1774 96.4681 49.1817C96.595 49.1817 96.7359 49.1877 96.8864 49.1995C97.0327 49.2113 97.1719 49.2289 97.3001 49.252L97.6205 49.3097V47.2044L97.3888 47.1698C97.1274 47.1308 96.8635 47.1111 96.5992 47.1109Z" fill="#E8E8E8"/>
<path d="M103.666 54.1955L101.126 47.1655H98.8774L102.581 57.1441H104.685L108.31 47.1655H106.117L103.666 54.1955Z" fill="#E8E8E8"/>
<path d="M120.286 53.6714C120.26 53.9194 120.196 54.1619 120.094 54.3898C120.001 54.5858 119.875 54.7643 119.72 54.9172C119.551 55.0932 119.344 55.2298 119.115 55.3172C118.858 55.4175 118.584 55.4679 118.308 55.4657C118.025 55.4732 117.744 55.421 117.483 55.3125C117.251 55.2093 117.034 55.0761 116.837 54.9163C116.496 54.6157 116.26 54.2138 116.165 53.7699C115.913 52.7083 115.913 51.603 116.165 50.5414C116.259 50.0997 116.493 49.6995 116.832 49.3993C117.031 49.238 117.249 49.1033 117.483 48.9988C117.991 48.7997 118.556 48.7945 119.067 48.9844C119.284 49.069 119.483 49.1922 119.655 49.3478C119.812 49.5084 119.942 49.6937 120.039 49.8963C120.151 50.1366 120.222 50.3939 120.248 50.6574L120.276 50.8972H122.421L122.4 50.6071C122.372 50.0973 122.245 49.5978 122.027 49.136C121.818 48.7157 121.537 48.3348 121.197 48.0103C120.837 47.6556 120.406 47.3805 119.932 47.2031C119.412 47.0119 118.862 46.9173 118.308 46.924C117.52 46.8962 116.741 47.0879 116.057 47.4773C115.493 47.8177 115.008 48.2742 114.635 48.8163C114.351 49.2538 114.142 49.7351 114.017 50.2406C113.731 51.5013 113.731 52.8098 114.017 54.0705C114.143 54.5766 114.352 55.0584 114.635 55.4963C115.008 56.038 115.493 56.4941 116.057 56.834C116.747 57.2249 117.533 57.4166 118.326 57.3873C118.892 57.3968 119.454 57.2984 119.983 57.0973C120.896 56.7333 121.642 56.0445 122.074 55.1644C122.286 54.7112 122.409 54.2222 122.438 53.7234L122.459 53.4328H120.314L120.286 53.6714Z" fill="#E8E8E8"/>
<path d="M132.563 51.7322C132.578 51.0793 132.471 50.4294 132.247 49.8156C132.036 49.2276 131.711 48.6864 131.291 48.2225C130.899 47.8017 130.421 47.4684 129.889 47.2446C129.358 47.0209 128.785 46.9117 128.208 46.9243C127.401 46.9071 126.606 47.1147 125.912 47.5237C125.289 47.8938 124.768 48.4124 124.397 49.0327C124.12 49.4939 123.919 49.9965 123.803 50.5213C123.683 51.0707 123.625 51.6313 123.628 52.1933C123.624 52.8695 123.727 53.5422 123.931 54.1872C124.126 54.8065 124.445 55.3798 124.87 55.8721C125.261 56.3397 125.749 56.7172 126.301 56.9784C126.903 57.2579 127.562 57.3978 128.227 57.3876C128.691 57.3889 129.153 57.3222 129.598 57.1895C130.023 57.0634 130.426 56.8756 130.796 56.6323C131.217 56.346 131.575 55.9764 131.847 55.5464C132.126 55.1127 132.306 54.6231 132.374 54.1123L132.414 53.8061H130.337L130.286 54.0111C130.245 54.1945 130.179 54.3715 130.09 54.5372C130.007 54.675 129.907 54.8017 129.792 54.9141C129.348 55.2693 128.793 55.458 128.224 55.4473C127.654 55.4365 127.107 55.2269 126.677 54.8551C126.405 54.577 126.196 54.2441 126.065 53.8788C125.95 53.5802 125.878 53.2673 125.85 52.949H132.54L132.563 51.7322ZM125.897 51.0459C125.923 50.8208 125.972 50.5987 126.041 50.3829C126.134 50.0922 126.282 49.8222 126.478 49.5877C126.677 49.3522 126.922 49.1596 127.198 49.0216C127.513 48.8724 127.859 48.7994 128.208 48.8087C128.547 48.8 128.884 48.87 129.191 49.0131C129.454 49.1411 129.684 49.3276 129.863 49.5581C130.039 49.7969 130.17 50.0647 130.251 50.3491C130.318 50.5763 130.361 50.8098 130.379 51.0459L125.897 51.0459Z" fill="#E8E8E8"/>
<path d="M109.656 44.2379V45.8161L110.485 46.2928C110.566 46.3459 110.632 46.4191 110.675 46.5052C110.719 46.5912 110.739 46.6872 110.734 46.7834C110.729 46.8797 110.698 46.9729 110.646 47.0539C110.593 47.1348 110.52 47.2006 110.434 47.2448L109.943 47.5279V57.1453H112.118V47.5279L111.576 47.2155C111.499 47.1652 111.436 47.0967 111.393 47.0162C111.349 46.9357 111.326 46.8457 111.326 46.7543C111.326 46.6628 111.349 46.5728 111.392 46.4922C111.436 46.4117 111.499 46.3432 111.575 46.2928L112.404 45.8161V44.2379L111.03 43.4487L109.656 44.2379Z" fill="#E8E8E8"/>
<path d="M75.447 25.1156C74.8504 25.1192 74.2564 25.0369 73.6835 24.8712C73.1153 24.7023 72.599 24.3934 72.1825 23.9731C71.8706 23.6624 71.622 23.2947 71.4503 22.89C71.2762 22.4884 71.186 22.0558 71.1851 21.6184V21.3476H73.3111L73.3211 21.6082C73.325 21.8617 73.3901 22.1105 73.5108 22.3338C73.6306 22.5448 73.7915 22.7298 73.9842 22.8779C74.1839 23.0224 74.4141 23.1196 74.6572 23.1619C74.9418 23.2195 75.2315 23.249 75.5219 23.2499C75.8131 23.2531 76.1037 23.2211 76.3871 23.1545C76.5877 23.1095 76.777 23.0243 76.9434 22.904C77.1098 22.7837 77.2498 22.6309 77.3548 22.4549C77.4272 22.3045 77.4633 22.1394 77.4603 21.9727C77.4648 21.8424 77.4412 21.7126 77.3912 21.592C77.3412 21.4714 77.2658 21.3629 77.1702 21.2738C76.9 21.0526 76.5669 20.9213 76.2178 20.8985C76.1178 20.8863 75.9787 20.8674 75.8016 20.842C75.6284 20.8175 75.4426 20.7928 75.2443 20.768C75.045 20.7434 74.8425 20.7185 74.6366 20.6936C74.4218 20.6677 74.2381 20.6429 74.0753 20.6178C73.3775 20.5316 72.7277 20.2187 72.2266 19.7276C71.9877 19.4709 71.8024 19.1696 71.6815 18.8411C71.5606 18.5125 71.5064 18.1634 71.5222 17.8138C71.5219 17.4158 71.6108 17.0226 71.7824 16.6631C71.9319 16.335 72.137 16.0349 72.3887 15.776C72.7482 15.4129 73.1823 15.1315 73.6613 14.951C74.2076 14.7453 74.788 14.644 75.372 14.6523C75.9992 14.6454 76.6223 14.7526 77.2109 14.9684C77.7526 15.1657 78.2317 15.503 78.599 15.9458C78.8221 16.2061 79.0032 16.4994 79.1357 16.8151C79.274 17.1689 79.3415 17.5462 79.3343 17.9257V18.1965H77.2115L77.1985 17.9394C77.1905 17.7408 77.14 17.5463 77.0502 17.3688C76.9736 17.2127 76.8698 17.0712 76.7437 16.951C76.3567 16.6414 75.8675 16.487 75.372 16.518C75.0324 16.4986 74.6927 16.5543 74.3772 16.6812C74.1416 16.7708 73.936 16.9245 73.784 17.1249C73.6556 17.2903 73.5852 17.4929 73.5835 17.7019C73.5699 17.822 73.5841 17.9435 73.6249 18.0573C73.6658 18.171 73.7322 18.2739 73.8192 18.3582C74.0574 18.5282 74.3358 18.634 74.6272 18.6653C74.8864 18.7021 75.2055 18.7426 75.5721 18.7851C75.9492 18.8291 76.4014 18.8956 76.9162 18.9829C77.6189 19.0915 78.2695 19.4176 78.7756 19.915C79.0332 20.1685 79.2357 20.4721 79.3704 20.8068C79.5052 21.1416 79.5694 21.5003 79.5591 21.8608C79.5658 22.2715 79.4881 22.6793 79.3307 23.059C79.1875 23.3946 78.9858 23.7023 78.7351 23.9681C78.3296 24.3807 77.8257 24.6846 77.2705 24.8513C76.6797 25.0311 76.0648 25.1202 75.447 25.1156Z" fill="#E8E8E8"/>
<path d="M75.447 57.3871C74.8504 57.3907 74.2564 57.3084 73.6835 57.1427C73.1153 56.9738 72.599 56.6649 72.1825 56.2446C71.8706 55.9339 71.622 55.5662 71.4503 55.1615C71.2762 54.7599 71.186 54.3272 71.1851 53.8898V53.6191H73.3111L73.3211 53.8797C73.325 54.1332 73.3901 54.382 73.5108 54.6052C73.6306 54.8163 73.7915 55.0013 73.9842 55.1494C74.1839 55.2939 74.4141 55.3911 74.6572 55.4334C74.9418 55.491 75.2315 55.5205 75.5219 55.5214C75.8131 55.5246 76.1037 55.4926 76.3871 55.4259C76.5877 55.381 76.777 55.2958 76.9434 55.1755C77.1098 55.0552 77.2498 54.9024 77.3548 54.7264C77.4272 54.576 77.4633 54.4109 77.4603 54.2442C77.4648 54.1139 77.4412 53.984 77.3912 53.8635C77.3412 53.7429 77.2658 53.6344 77.1702 53.5453C76.9 53.3241 76.5669 53.1928 76.2178 53.17C76.1178 53.1578 75.9787 53.1389 75.8016 53.1135C75.6284 53.089 75.4426 53.0643 75.2443 53.0395C75.045 53.0148 74.8425 52.99 74.6366 52.9651C74.4218 52.9392 74.2381 52.9144 74.0753 52.8893C73.3775 52.8031 72.7277 52.4902 72.2266 51.999C71.9877 51.7424 71.8024 51.4411 71.6815 51.1125C71.5606 50.784 71.5064 50.4348 71.5222 50.0853C71.5219 49.6873 71.6108 49.2941 71.7824 48.9346C71.9319 48.6065 72.137 48.3064 72.3887 48.0475C72.7482 47.6844 73.1823 47.403 73.6613 47.2225C74.2076 47.0168 74.788 46.9154 75.372 46.9238C75.9992 46.9169 76.6223 47.024 77.2109 47.2399C77.7526 47.4371 78.2317 47.7745 78.599 48.2173C78.8221 48.4776 79.0032 48.7708 79.1357 49.0866C79.274 49.4404 79.3415 49.8177 79.3343 50.1972V50.468H77.2115L77.1985 50.2109C77.1905 50.0123 77.14 49.8178 77.0502 49.6403C76.9736 49.4842 76.8698 49.3427 76.7437 49.2225C76.3567 48.9129 75.8675 48.7585 75.372 48.7895C75.0324 48.7701 74.6927 48.8258 74.3772 48.9527C74.1416 49.0423 73.936 49.196 73.784 49.3964C73.6556 49.5618 73.5852 49.7644 73.5835 49.9734C73.5699 50.0935 73.5841 50.215 73.6249 50.3287C73.6658 50.4425 73.7322 50.5454 73.8192 50.6297C74.0574 50.7997 74.3358 50.9055 74.6272 50.9368C74.8864 50.9736 75.2055 51.0141 75.5721 51.0566C75.9492 51.1006 76.4014 51.1671 76.9162 51.2544C77.6189 51.363 78.2695 51.6891 78.7756 52.1865C79.0332 52.44 79.2357 52.7436 79.3704 53.0783C79.5052 53.4131 79.5694 53.7718 79.5591 54.1323C79.5658 54.543 79.4881 54.9508 79.3307 55.3305C79.1875 55.6661 78.9858 55.9738 78.7351 56.2395C78.3296 56.6522 77.8257 56.9561 77.2705 57.1228C76.6797 57.3026 76.0648 57.3917 75.447 57.3871Z" fill="#E8E8E8"/>
</svg>
